<svg width="273" height="302" viewBox="0 0 273 302" fill="none" xmlns="http://www.w3.org/2000/svg">
<g id="Group 69">
<path id="Vector 5" d="M117.025 267.026C114.176 273.2 106.305 273.747 100.718 268.902C95.1302 264.057 95.621 250.363 93.0175 204.204C92.3947 193.161 97.3239 161.904 98.5796 157.554C105.486 133.627 100.427 109.551 99.5141 97.2005C98.6013 84.8497 83.4682 30.6668 81.3983 14.8903C79.3283 -0.886224 97.3717 -0.929088 99.2017 10.5536C101.032 22.0362 112.24 65.5358 117.852 79.8378C123.463 94.1398 138.787 91.664 144.77 88.4334C167.156 76.3456 188.586 53.9033 199.491 47.0558C210.396 40.2084 219.836 52.4002 211.247 59.4896C202.657 66.5791 157.84 100.402 154.413 108.168C152.723 111.159 150.406 123.865 151.705 128.816C153.003 133.767 155.26 138.786 161.075 144.346C190.414 166.355 205.251 176.129 217.396 189.382C229.54 202.635 221.056 212.347 213.964 210.367C206.873 208.387 204.403 207.402 198.576 204.766C193.092 202.285 185.021 197.429 185.021 197.429C185.021 197.429 137.733 173.034 131.716 180.431C124.382 184.737 119.877 247.632 119.442 250.478C119.007 253.324 119.873 260.851 117.025 267.026Z" fill="#207579"/>
<ellipse id="Ellipse 6" cx="136.676" cy="65.569" rx="16.9405" ry="20.8933" transform="rotate(13 136.676 65.569)" fill="#207579"/>
<path id="Vector 6" d="M123.304 86.0591C118.164 88.4892 114.907 89.5822 112.545 105.976M140 88.5711C146.318 96.3567 147.301 102.25 142.351 111.59M142.351 111.59C133.384 113.524 131.15 117.131 130.334 126.445M142.351 111.59C148.009 117.161 148.369 121.424 143.599 131.274" stroke="white" stroke-width="3"/>
<circle id="Ellipse 6_2" cx="111.935" cy="109.666" r="4.20881" transform="rotate(4 111.935 109.666)" fill="white"/>
<path id="Ellipse 7" d="M131.926 126.354C131.861 127.287 131.051 127.991 130.118 127.926C129.185 127.861 128.481 127.051 128.546 126.118C128.611 125.184 129.421 124.481 130.354 124.546C131.288 124.611 131.991 125.421 131.926 126.354Z" fill="white"/>
<ellipse id="Ellipse 8" cx="144.032" cy="131.257" rx="1.69405" ry="1.69405" transform="rotate(4 144.032 131.257)" fill="white"/>
</g>
</svg>
