<svg width="69" height="76" viewBox="0 0 69 76" fill="none" xmlns="http://www.w3.org/2000/svg">
<g id="Group 68">
<path id="Vector 5" d="M29.2562 66.7564C28.5442 68.3 26.5763 68.4368 25.1794 67.2256C23.7826 66.0143 23.9053 62.5908 23.2544 51.0511C23.0987 48.2902 24.331 40.476 24.6449 39.3884C26.3715 33.4067 25.1068 27.3878 24.8786 24.3001C24.6504 21.2124 20.8671 7.66671 20.3496 3.72258C19.8321 -0.221556 24.343 -0.232272 24.8005 2.63839C25.258 5.50906 28.0601 16.384 29.463 19.9595C30.8659 23.5349 34.6967 22.916 36.1925 22.1083C41.7892 19.0864 47.1464 13.4758 49.8727 11.764C52.5991 10.0521 54.9591 13.1 52.8117 14.8724C50.6643 16.6448 39.4601 25.1004 38.6032 27.042C38.1809 27.7897 37.6016 30.9662 37.9263 32.2039C38.2509 33.4417 38.8152 34.6965 40.2689 36.0866C47.6036 41.5888 51.3128 44.0322 54.349 47.3454C57.3852 50.6587 55.2639 53.0868 53.4911 52.5917C51.7183 52.0967 51.1007 51.8505 49.644 51.1915C48.273 50.5713 46.2554 49.3572 46.2554 49.3572C46.2554 49.3572 34.4333 43.2585 32.9292 45.1078C31.0955 46.1842 29.9693 61.908 29.8605 62.6196C29.7518 63.3311 29.9683 65.2127 29.2562 66.7564Z" fill="#207579"/>
<ellipse id="Ellipse 6" cx="34.1692" cy="16.3923" rx="4.23514" ry="5.22333" transform="rotate(13 34.1692 16.3923)" fill="#207579"/>
<path id="Vector 6" d="M30.8261 21.5148C29.5409 22.1223 28.7267 22.3955 28.1363 26.4941M35 22.1428C36.5794 24.0892 36.8253 25.5626 35.5878 27.8974M35.5878 27.8974C33.3461 28.381 32.7875 29.2827 32.5835 31.6113M35.5878 27.8974C37.0024 29.2903 37.0923 30.3559 35.8999 32.8184" stroke="white"/>
<circle id="Ellipse 6_2" cx="27.9838" cy="27.4165" r="1.0522" transform="rotate(4 27.9838 27.4165)" fill="white"/>
<path id="Ellipse 7" d="M32.9816 31.5885C32.9652 31.8218 32.7629 31.9978 32.5295 31.9814C32.2962 31.9651 32.1203 31.7627 32.1366 31.5294C32.1529 31.2961 32.3553 31.1202 32.5886 31.1365C32.822 31.1528 32.9979 31.3552 32.9816 31.5885Z" fill="white"/>
<circle id="Ellipse 8" cx="36.0082" cy="32.8143" r="0.423514" transform="rotate(4 36.0082 32.8143)" fill="white"/>
</g>
</svg>
