<svg width="50" height="50" viewBox="0 0 50 50" fill="none" xmlns="http://www.w3.org/2000/svg">
<g id="edit">
<path id="Vector" d="M22.917 8.33337H8.33366C7.22859 8.33337 6.16878 8.77236 5.38738 9.55376C4.60598 10.3352 4.16699 11.395 4.16699 12.5V41.6667C4.16699 42.7718 4.60598 43.8316 5.38738 44.613C6.16878 45.3944 7.22859 45.8334 8.33366 45.8334H37.5003C38.6054 45.8334 39.6652 45.3944 40.4466 44.613C41.228 43.8316 41.667 42.7718 41.667 41.6667V27.0834" stroke="#207579" stroke-width="3" stroke-linecap="round" stroke-linejoin="round"/>
<path id="Vector_2" d="M38.542 5.20836C39.3708 4.37956 40.4949 3.91394 41.667 3.91394C42.8391 3.91394 43.9632 4.37956 44.792 5.20836C45.6208 6.03716 46.0864 7.16126 46.0864 8.33336C46.0864 9.50546 45.6208 10.6296 44.792 11.4584L25.0003 31.25L16.667 33.3334L18.7503 25L38.542 5.20836Z" stroke="#207579" stroke-width="3" stroke-linecap="round" stroke-linejoin="round"/>
</g>
</svg>
