<svg width="28" height="30" viewBox="0 0 28 30" fill="none" xmlns="http://www.w3.org/2000/svg">
<g id="folder-plus">
<path id="Vector" d="M25.6663 23.75C25.6663 24.413 25.4205 25.0489 24.9829 25.5178C24.5453 25.9866 23.9518 26.25 23.333 26.25H4.66634C4.0475 26.25 3.45401 25.9866 3.01643 25.5178C2.57884 25.0489 2.33301 24.413 2.33301 23.75V6.25C2.33301 5.58696 2.57884 4.95107 3.01643 4.48223C3.45401 4.01339 4.0475 3.75 4.66634 3.75H10.4997L12.833 7.5H23.333C23.9518 7.5 24.5453 7.76339 24.9829 8.23223C25.4205 8.70107 25.6663 9.33696 25.6663 10V23.75Z" stroke="#CACACA" stroke-width="2" stroke-linecap="round" stroke-linejoin="round"/>
<path id="Vector_2" d="M14 13.75V21.25" stroke="#CACACA" stroke-width="2" stroke-linecap="round" stroke-linejoin="round"/>
<path id="Vector_3" d="M10.5 17.5H17.5" stroke="#CACACA" stroke-width="2" stroke-linecap="round" stroke-linejoin="round"/>
</g>
</svg>
