<svg width="86" height="106" viewBox="0 0 86 106" fill="none" xmlns="http://www.w3.org/2000/svg">
<g id="Group 72">
<path id="Vector 5" d="M30.9585 93.4589C29.9616 95.62 27.2065 95.8115 25.251 94.1158C23.2954 92.4201 23.4672 87.6271 22.556 71.4715C22.338 67.6063 24.0632 56.6665 24.5027 55.1438C26.9198 46.7694 25.1492 38.3429 24.8298 34.0202C24.5103 29.6974 19.2137 10.7334 18.4892 5.21161C17.7647 -0.310178 24.0799 -0.325181 24.7204 3.69375C25.3609 7.71269 29.2839 22.9375 31.2479 27.9432C33.212 32.9489 38.5751 32.0824 40.6692 30.9517C48.5046 26.721 56.0048 18.8662 59.8216 16.4695C63.6384 14.0729 66.9426 18.3401 63.9362 20.8214C60.9298 23.3027 45.2439 35.1406 44.0442 37.8588C43.453 38.9056 42.6421 43.3527 43.0965 45.0855C43.551 46.8184 44.341 48.5751 46.3762 50.5213C56.6448 58.2244 61.8377 61.6451 66.0883 66.2836C70.339 70.9221 67.3693 74.3215 64.8873 73.6284C62.4054 72.9354 61.5408 72.5907 59.5014 71.6681C57.582 70.7998 54.7573 69.1001 54.7573 69.1001C54.7573 69.1001 38.2064 60.5619 36.1006 63.1509C33.5335 64.6579 31.9567 86.6712 31.8045 87.6674C31.6522 88.6636 31.9554 91.2978 30.9585 93.4589Z" fill="white"/>
<ellipse id="Ellipse 6" cx="37.8366" cy="22.949" rx="5.92919" ry="7.31267" transform="rotate(13 37.8366 22.949)" fill="white"/>
<path id="Vector 6" d="M33.1564 30.1208C31.357 30.9713 30.2171 31.3538 29.3906 37.0918M38.9998 31C41.211 33.7249 41.5551 35.7877 39.8226 39.0565M39.8226 39.0565C36.6843 39.7335 35.9023 40.9959 35.6166 44.256M39.8226 39.0565C41.8031 41.0066 41.929 42.4984 40.2596 45.9459" stroke="#207579"/>
<circle id="Ellipse 6_2" cx="29.177" cy="38.3827" r="1.47308" transform="rotate(4 29.177 38.3827)" fill="#207579"/>
<path id="Ellipse 7" d="M36.1739 44.2241C36.1511 44.5507 35.8678 44.797 35.5411 44.7742C35.2144 44.7513 34.9681 44.468 34.991 44.1413C35.0138 43.8147 35.2972 43.5684 35.6238 43.5912C35.9505 43.6141 36.1968 43.8974 36.1739 44.2241Z" fill="#207579"/>
<circle id="Ellipse 8" cx="40.4112" cy="45.9402" r="0.592919" transform="rotate(4 40.4112 45.9402)" fill="#207579"/>
</g>
</svg>
