<svg width="30" height="32" viewBox="0 0 30 32" fill="none" xmlns="http://www.w3.org/2000/svg">
<g id="message-circle">
<path id="Vector" d="M3.75 15.0269C3.74569 16.7516 4.13116 18.4529 4.875 19.9923C5.75695 21.837 7.11281 23.3886 8.79069 24.4733C10.4686 25.558 12.4022 26.133 14.375 26.1338C16.0248 26.1382 17.6524 25.7353 19.125 24.9577L26.25 27.4404L23.875 19.9923C24.6188 18.4529 25.0043 16.7516 25 15.0269C24.9992 12.9646 24.4492 10.9433 23.4116 9.18936C22.374 7.43539 20.8897 6.01805 19.125 5.0961C17.6524 4.31853 16.0248 3.91558 14.375 3.92008H13.75C11.1446 4.07034 8.68369 5.21992 6.83857 7.14872C4.99345 9.07752 3.89374 11.65 3.75 14.3736V15.0269Z" stroke="white" stroke-width="2" stroke-linecap="round" stroke-linejoin="round"/>
</g>
</svg>
