<svg width="28" height="30" viewBox="0 0 28 30" fill="none" xmlns="http://www.w3.org/2000/svg">
<g id="settings" clip-path="url(#clip0_71_317)">
<path id="Vector" d="M14 18.75C15.933 18.75 17.5 17.0711 17.5 15C17.5 12.9289 15.933 11.25 14 11.25C12.067 11.25 10.5 12.9289 10.5 15C10.5 17.0711 12.067 18.75 14 18.75Z" stroke="#CACACA" stroke-width="2" stroke-linecap="round" stroke-linejoin="round"/>
<path id="Vector_2" d="M22.6337 18.75C22.4784 19.127 22.432 19.5452 22.5007 19.9507C22.5693 20.3562 22.7497 20.7304 23.0187 21.025L23.0887 21.1C23.3056 21.3322 23.4777 21.6079 23.5951 21.9114C23.7126 22.2149 23.773 22.5402 23.773 22.8688C23.773 23.1973 23.7126 23.5226 23.5951 23.8261C23.4777 24.1296 23.3056 24.4053 23.0887 24.6375C22.872 24.8699 22.6146 25.0543 22.3314 25.1801C22.0481 25.306 21.7445 25.3707 21.4378 25.3707C21.1312 25.3707 20.8276 25.306 20.5443 25.1801C20.261 25.0543 20.0037 24.8699 19.787 24.6375L19.717 24.5625C19.442 24.2743 19.0928 24.081 18.7143 24.0075C18.3359 23.934 17.9455 23.9836 17.5937 24.15C17.2486 24.3085 16.9543 24.5716 16.747 24.9069C16.5397 25.2423 16.4285 25.6353 16.427 26.0375V26.25C16.427 26.913 16.1812 27.5489 15.7436 28.0178C15.306 28.4866 14.7125 28.75 14.0937 28.75C13.4748 28.75 12.8813 28.4866 12.4437 28.0178C12.0062 27.5489 11.7603 26.913 11.7603 26.25V26.1375C11.7513 25.7238 11.6263 25.3225 11.4016 24.9859C11.1769 24.6493 10.8628 24.3929 10.5003 24.25C10.1484 24.0836 9.7581 24.034 9.37964 24.1075C9.00118 24.181 8.65195 24.3743 8.37699 24.6625L8.30699 24.7375C8.09029 24.9699 7.83295 25.1543 7.54969 25.2801C7.26642 25.406 6.96279 25.4707 6.65616 25.4707C6.34952 25.4707 6.04589 25.406 5.76263 25.2801C5.47937 25.1543 5.22203 24.9699 5.00533 24.7375C4.78838 24.5053 4.61628 24.2296 4.49885 23.9261C4.38143 23.6226 4.32099 23.2973 4.32099 22.9688C4.32099 22.6402 4.38143 22.3149 4.49885 22.0114C4.61628 21.7079 4.78838 21.4322 5.00533 21.2L5.07533 21.125C5.34428 20.8304 5.52471 20.4562 5.59333 20.0507C5.66195 19.6452 5.61563 19.227 5.46033 18.85C5.31244 18.4803 5.06687 18.165 4.75387 17.9429C4.44086 17.7208 4.07408 17.6016 3.69866 17.6H3.50033C2.88149 17.6 2.28799 17.3366 1.85041 16.8678C1.41282 16.3989 1.16699 15.763 1.16699 15.1C1.16699 14.437 1.41282 13.8011 1.85041 13.3322C2.28799 12.8634 2.88149 12.6 3.50033 12.6H3.60533C3.99149 12.5903 4.366 12.4564 4.68017 12.2156C4.99435 11.9749 5.23366 11.6384 5.36699 11.25C5.52229 10.873 5.56862 10.4548 5.5 10.0493C5.43138 9.64377 5.25095 9.2696 4.98199 8.975L4.91199 8.9C4.69505 8.66782 4.52294 8.3921 4.40552 8.0886C4.2881 7.78511 4.22766 7.45979 4.22766 7.13125C4.22766 6.80271 4.2881 6.47739 4.40552 6.1739C4.52294 5.8704 4.69505 5.59468 4.91199 5.3625C5.1287 5.13006 5.38604 4.94566 5.6693 4.81985C5.95256 4.69404 6.25619 4.62928 6.56283 4.62928C6.86946 4.62928 7.17309 4.69404 7.45635 4.81985C7.73961 4.94566 7.99695 5.13006 8.21366 5.3625L8.28366 5.4375C8.55862 5.72567 8.90784 5.91898 9.2863 5.99251C9.66477 6.06603 10.0551 6.01639 10.407 5.85H10.5003C10.8454 5.69155 11.1397 5.42844 11.347 5.09308C11.5543 4.75772 11.6655 4.36473 11.667 3.9625V3.75C11.667 3.08696 11.9128 2.45107 12.3504 1.98223C12.788 1.51339 13.3815 1.25 14.0003 1.25C14.6192 1.25 15.2127 1.51339 15.6502 1.98223C16.0878 2.45107 16.3337 3.08696 16.3337 3.75V3.8625C16.3352 4.26473 16.4464 4.65772 16.6537 4.99308C16.861 5.32844 17.1553 5.59155 17.5003 5.75C17.8522 5.91639 18.2426 5.96603 18.621 5.89251C18.9995 5.81898 19.3487 5.62567 19.6237 5.3375L19.6937 5.2625C19.9104 5.03006 20.1677 4.84566 20.451 4.71985C20.7342 4.59404 21.0379 4.52928 21.3445 4.52928C21.6511 4.52928 21.9548 4.59404 22.238 4.71985C22.5213 4.84566 22.7786 5.03006 22.9953 5.2625C23.2123 5.49468 23.3844 5.7704 23.5018 6.0739C23.6192 6.37739 23.6797 6.70271 23.6797 7.03125C23.6797 7.35979 23.6192 7.68511 23.5018 7.9886C23.3844 8.2921 23.2123 8.56782 22.9953 8.8L22.9253 8.875C22.6564 9.1696 22.4759 9.54377 22.4073 9.94926C22.3387 10.3548 22.385 10.773 22.5403 11.15V11.25C22.6882 11.6197 22.9338 11.935 23.2468 12.1571C23.5598 12.3792 23.9266 12.4984 24.302 12.5H24.5003C25.1192 12.5 25.7127 12.7634 26.1502 13.2322C26.5878 13.7011 26.8337 14.337 26.8337 15C26.8337 15.663 26.5878 16.2989 26.1502 16.7678C25.7127 17.2366 25.1192 17.5 24.5003 17.5H24.3953C24.0199 17.5016 23.6531 17.6208 23.3401 17.8429C23.0271 18.065 22.7815 18.3803 22.6337 18.75Z" stroke="#CACACA" stroke-width="2" stroke-linecap="round" stroke-linejoin="round"/>
</g>
<defs>
<clipPath id="clip0_71_317">
<rect width="28" height="30" fill="white"/>
</clipPath>
</defs>
</svg>
